<?xml version="1.0" encoding="UTF-8" standalone="no"?>
<!-- Created with Inkscape (http://www.inkscape.org/) -->

<svg
   xmlns:dc="http://purl.org/dc/elements/1.1/"
   xmlns:cc="http://creativecommons.org/ns#"
   xmlns:rdf="http://www.w3.org/1999/02/22-rdf-syntax-ns#"
   xmlns:svg="http://www.w3.org/2000/svg"
   xmlns="http://www.w3.org/2000/svg"
   xmlns:sodipodi="http://sodipodi.sourceforge.net/DTD/sodipodi-0.dtd"
   xmlns:inkscape="http://www.inkscape.org/namespaces/inkscape"
   width="210mm"
   height="297mm"
   viewBox="0 0 744.09448819 1052.3622047"
   id="svg4150"
   version="1.1"
   inkscape:version="0.91 r"
   sodipodi:docname="X.svg">
  <defs
     id="defs4152" />
  <sodipodi:namedview
     id="base"
     pagecolor="#ffffff"
     bordercolor="#666666"
     borderopacity="1.0"
     inkscape:pageopacity="0.0"
     inkscape:pageshadow="2"
     inkscape:zoom="0.35"
     inkscape:cx="-23.571429"
     inkscape:cy="520"
     inkscape:document-units="px"
     inkscape:current-layer="layer1"
     showgrid="false"
     inkscape:window-width="1920"
     inkscape:window-height="1055"
     inkscape:window-x="1920"
     inkscape:window-y="0"
     inkscape:window-maximized="1" />
  <metadata
     id="metadata4155">
    <rdf:RDF>
      <cc:Work
         rdf:about="">
        <dc:format>image/svg+xml</dc:format>
        <dc:type
           rdf:resource="http://purl.org/dc/dcmitype/StillImage" />
        <dc:title></dc:title>
      </cc:Work>
    </rdf:RDF>
  </metadata>
  <g
     inkscape:label="Layer 1"
     inkscape:groupmode="layer"
     id="layer1">
    <path
       style="fill:#1a1a1a;fill-opacity:1"
       d="m 529.49204,945.25909 c -5.41592,-15.53615 -13.09991,-26.23701 -17.07568,-23.77997 -12.35695,7.63707 -34.88221,-15.42493 -47.87938,-49.02029 C 452.80595,842.13664 435.57184,803.93034 361.97606,645.0919 l -30.86255,-66.60915 -67.61117,71.20217 c -37.18606,39.16121 -85.94165,90.7945 -108.34577,114.74053 -36.67651,39.2008 -42.65692,42.40395 -60.028864,32.15159 -15.37801,-9.07548 -20.13833,-9.05602 -23.45261,0.0963 -7.26105,20.0501 -29.609465,12.38442 -35.799813,-12.27949 -4.995163,-19.90243 1.480293,-31.46634 39.866023,-71.19271 25.206464,-26.08688 83.184044,-86.3273 128.838844,-133.86797 l 83.00901,-86.43733 -23.28787,-60.54118 C 197.57721,258.89283 188.53177,231.66238 188.50106,204.16599 c -0.0191,-16.42028 4.10054,-29.85499 9.15293,-29.85499 5.0524,0 9.18613,6.20065 9.18613,13.77924 0,7.57859 4.13374,13.77924 9.18613,13.77924 5.0524,0 9.24947,-11.36789 9.32683,-25.26197 0.21747,-39.1017 13.01854,-53.94287 28.53819,-33.08714 6.9624,9.35629 18.57896,17.01139 25.81464,17.01139 8.41751,0 28.2672,40.52933 55.11305,112.53044 23.0766,61.89174 44.76675,112.53053 48.20045,112.53053 5.92079,0 22.42664,-16.7856 167.11125,-169.94401 39.66199,-41.98492 60.77239,-58.7236 60.82304,-48.22734 0.0983,20.23829 16.58263,20.61296 38.39536,0.87278 15.78092,-14.28155 16.79916,-14.00312 16.79916,4.59311 0,10.88781 4.13373,19.79608 9.18613,19.79608 26.25256,0 14.21897,15.04387 -146.97855,183.74539 -22.73578,23.79417 -56.70085,59.39148 -75.47783,79.10534 l -34.1401,35.84322 14.38265,41.2658 c 7.91034,22.69629 15.8162,49.53347 17.56844,59.63826 1.75224,10.10469 21.84068,72.11128 44.64094,137.79242 22.80035,65.68104 41.62541,132.1658 41.83354,147.74411 0.20794,15.57813 3.04939,30.99486 6.31387,34.25925 8.8187,8.81879 11.45774,61.42988 3.08144,61.42988 -3.97082,0 -11.65071,-12.7114 -17.06671,-28.24755 z"
       id="path8085"
       inkscape:connector-curvature="0" />
  </g>
</svg>
