<?xml version="1.0" encoding="utf-8"?>
<!-- Generator: Adobe Illustrator 16.0.0, SVG Export Plug-In . SVG Version: 6.00 Build 0)  -->
<!DOCTYPE svg PUBLIC "-//W3C//DTD SVG 1.1//EN" "http://www.w3.org/Graphics/SVG/1.1/DTD/svg11.dtd">
<svg version="1.1" id="Слой_1" xmlns="http://www.w3.org/2000/svg" xmlns:xlink="http://www.w3.org/1999/xlink" x="0px" y="0px"
	 width="281.449px" height="84.961px" viewBox="0 0 281.449 84.961" enable-background="new 0 0 281.449 84.961"
	 xml:space="preserve">
<g>
	<polygon fill="#FFFFFF" points="33.416,43.854 50.071,53.47 33.416,63.087 	"/>
	<g>
		<path fill="#FFFFFF" d="M99.213,55.283v-15.22h-1.918c-1.599,0-1.919-0.767-1.919-4.157c0-3.389,0.32-4.157,1.919-4.157h1.918
			v-4.157c0-2.558,1.343-2.877,5.436-2.877s5.436,0.32,5.436,2.877v4.157h3.838c1.599,0,1.918,0.768,1.918,4.157
			c0,3.39-0.319,4.157-1.918,4.157h-3.838v13.046c0,0.704,0.192,1.087,1.472,1.087c1.087,0,1.854-0.256,2.558-0.256
			c1.023,0,1.727,0.384,1.727,3.901c0,3.261-0.64,4.029-1.854,4.604c-1.918,0.896-4.284,1.279-6.778,1.279
			C102.027,63.725,99.213,61.934,99.213,55.283z"/>
		<path fill="#FFFFFF" d="M118.397,53.94c0-6.906,2.942-10.168,13.046-10.168h3.453v-0.383c0-3.518-1.022-3.518-4.093-3.518
			c-4.284,0-7.226,0.832-8.761,0.832c-1.279,0-1.854-1.279-1.854-4.349c0-3.005,0.512-3.837,1.982-4.349
			c1.791-0.639,5.884-1.215,10.232-1.215c9.017,0,13.173,1.279,13.173,9.464v7.227c0,9.272,1.088,11.319,1.088,13.173
			c0,1.663-0.768,2.43-4.988,2.43c-3.646,0-4.285-0.32-4.925-2.622l-0.703-2.622c-1.471,4.093-4.604,5.883-9.4,5.883
			C121.019,63.725,118.397,60.783,118.397,53.94z M134.896,50.487v-0.704l-3.197,0.064c-2.43,0.064-3.069,0.768-3.069,2.878
			s0.64,2.558,2.366,2.558C132.786,55.283,134.896,54.644,134.896,50.487z"/>
		<path fill="#FFFFFF" d="M152.737,55.283v-15.22h-1.918c-1.599,0-1.919-0.767-1.919-4.157c0-3.389,0.32-4.157,1.919-4.157h1.918
			v-4.157c0-2.558,1.343-2.877,5.436-2.877s5.436,0.32,5.436,2.877v4.157h3.838c1.599,0,1.918,0.768,1.918,4.157
			c0,3.39-0.319,4.157-1.918,4.157h-3.838v13.046c0,0.704,0.192,1.087,1.472,1.087c1.087,0,1.854-0.256,2.558-0.256
			c1.023,0,1.727,0.384,1.727,3.901c0,3.261-0.64,4.029-1.854,4.604c-1.918,0.896-4.284,1.279-6.778,1.279
			C155.55,63.725,152.737,61.934,152.737,55.283z"/>
		<path fill="#FFFFFF" d="M171.92,53.94c0-6.906,2.942-10.168,13.046-10.168h3.453v-0.383c0-3.518-1.022-3.518-4.093-3.518
			c-4.284,0-7.226,0.832-8.761,0.832c-1.279,0-1.854-1.279-1.854-4.349c0-3.005,0.512-3.837,1.982-4.349
			c1.791-0.639,5.884-1.215,10.232-1.215c9.017,0,13.173,1.279,13.173,9.464v7.227c0,9.272,1.088,11.319,1.088,13.173
			c0,1.663-0.768,2.43-4.988,2.43c-3.646,0-4.285-0.32-4.925-2.622l-0.703-2.622c-1.471,4.093-4.604,5.883-9.4,5.883
			C174.542,63.725,171.92,60.783,171.92,53.94z M188.419,50.487v-0.704l-3.197,0.064c-2.43,0.064-3.069,0.768-3.069,2.878
			s0.64,2.558,2.366,2.558C186.309,55.283,188.419,54.644,188.419,50.487z"/>
	</g>
	<circle fill="#FFFFFF" cx="214.935" cy="55.759" r="7.327"/>
	<g>
		<path fill="#95C123" d="M251.752,30.668h-21.45c-6.789,0-12.311,5.891-12.566,14.552c4.839,0.466,8.635,5.532,8.635,10.493
			c0,2.087-0.688,4-1.821,5.57c1.725,1.146,3.677,1.804,5.753,1.804h21.45c6.951,0,12.589-7.258,12.589-16.211
			C264.341,37.925,258.704,30.668,251.752,30.668z M236.116,50.378c0.542,0,0.927-0.128,1.281-0.128c0.51,0,0.859,0.193,0.859,1.952
			c0,1.632-0.319,2.014-0.926,2.302c-0.958,0.449-2.145,0.642-3.39,0.642c-2.592,0-3.997-0.897-3.997-4.223v-7.612h-0.96
			c-0.799,0-0.962-0.384-0.962-2.079s0.163-2.079,0.962-2.079h0.96v-2.079c0-1.279,0.67-1.439,2.717-1.439s2.72,0.16,2.72,1.439
			v2.079h1.919c0.798,0,0.957,0.384,0.957,2.079s-0.159,2.079-0.957,2.079h-1.919v6.525
			C235.38,50.188,235.474,50.378,236.116,50.378z M246.826,55.146c-5.117,0-6.973-1.44-6.973-8.157c0-7.196,2.047-8.316,7.483-8.316
			c5.118,0,6.973,1.279,6.973,7.996C254.309,53.865,252.262,55.146,246.826,55.146z"/>
		<path fill="#95C123" d="M247.145,43.151c-1.662,0-1.821,0.479-1.821,3.614c0,3.423,0.448,3.902,1.662,3.902
			c1.662,0,1.824-0.639,1.824-3.774C248.81,43.47,248.36,43.151,247.145,43.151z"/>
	</g>
	<g>
		<path fill="#FFFFFF" d="M107.905,77.124c0,2.415-0.604,4.325-1.811,5.73c-1.208,1.405-2.873,2.107-4.996,2.107
			c-2.116,0-3.778-0.703-4.985-2.107c-1.208-1.405-1.812-3.322-1.812-5.75c0-2.421,0.609-4.328,1.827-5.719s2.881-2.087,4.99-2.087
			c2.123,0,3.785,0.699,4.985,2.097C107.304,72.792,107.905,74.702,107.905,77.124z M95.457,77.124c0,2.179,0.485,3.863,1.457,5.053
			c0.972,1.19,2.366,1.785,4.185,1.785c1.832,0,3.231-0.59,4.199-1.77c0.968-1.179,1.452-2.869,1.452-5.069
			c0-2.192-0.484-3.873-1.452-5.042s-2.36-1.754-4.179-1.754c-1.811,0-3.207,0.59-4.189,1.77
			C95.948,73.276,95.457,74.952,95.457,77.124z"/>
		<path fill="#FFFFFF" d="M119.458,84.753v-7.338c0-1.138-0.239-1.965-0.718-2.482c-0.479-0.517-1.222-0.775-2.228-0.775
			c-1.354,0-2.344,0.342-2.972,1.025s-0.941,1.792-0.941,3.325v6.245h-1.031V73.439h0.875l0.197,1.551h0.063
			c0.735-1.18,2.044-1.77,3.924-1.77c2.567,0,3.852,1.377,3.852,4.132v7.4H119.458z"/>
		<path fill="#FFFFFF" d="M125.598,84.753h-1.031V68.558h1.031V84.753z"/>
		<path fill="#FFFFFF" d="M129.667,70.296c0-0.666,0.219-0.999,0.655-0.999c0.215,0,0.384,0.087,0.505,0.26s0.183,0.42,0.183,0.739
			c0,0.313-0.062,0.559-0.183,0.739c-0.121,0.18-0.29,0.271-0.505,0.271C129.886,71.306,129.667,70.969,129.667,70.296z
			 M130.843,84.753h-1.03V73.439h1.03V84.753z"/>
		<path fill="#FFFFFF" d="M142.948,84.753v-7.338c0-1.138-0.239-1.965-0.719-2.482c-0.479-0.517-1.221-0.775-2.227-0.775
			c-1.354,0-2.344,0.342-2.972,1.025s-0.942,1.792-0.942,3.325v6.245h-1.03V73.439h0.874l0.198,1.551h0.063
			c0.735-1.18,2.043-1.77,3.924-1.77c2.567,0,3.851,1.377,3.851,4.132v7.4H142.948z"/>
		<path fill="#FFFFFF" d="M152.626,84.961c-1.645,0-2.926-0.506-3.846-1.52c-0.919-1.013-1.379-2.432-1.379-4.257
			c0-1.804,0.444-3.249,1.332-4.335c0.889-1.086,2.085-1.629,3.591-1.629c1.332,0,2.384,0.465,3.154,1.395
			c0.77,0.93,1.155,2.193,1.155,3.789v0.833h-8.15c0.015,1.554,0.377,2.741,1.088,3.56s1.729,1.228,3.055,1.228
			c0.646,0,1.213-0.045,1.702-0.135s1.108-0.285,1.857-0.583v0.937c-0.638,0.277-1.228,0.466-1.769,0.567
			C153.875,84.911,153.279,84.961,152.626,84.961z M152.325,74.137c-1.089,0-1.964,0.359-2.623,1.077s-1.044,1.754-1.155,3.107
			h6.995c0-1.312-0.285-2.337-0.854-3.076C154.119,74.506,153.331,74.137,152.325,74.137z"/>
		<path fill="#FFFFFF" d="M175.399,69.536h1.155l-5.693,15.217h-0.937l-5.673-15.217h1.135l3.83,10.356
			c0.583,1.562,0.975,2.734,1.176,3.518c0.139-0.521,0.413-1.329,0.822-2.425L175.399,69.536z"/>
		<path fill="#FFFFFF" d="M178.729,70.296c0-0.666,0.219-0.999,0.656-0.999c0.215,0,0.383,0.087,0.505,0.26
			c0.121,0.173,0.182,0.42,0.182,0.739c0,0.313-0.061,0.559-0.182,0.739c-0.122,0.18-0.29,0.271-0.505,0.271
			C178.948,71.306,178.729,70.969,178.729,70.296z M179.906,84.753h-1.031V73.439h1.031V84.753z"/>
		<path fill="#FFFFFF" d="M188.262,73.221c0.819,0,1.526,0.149,2.124,0.448c0.597,0.298,1.131,0.808,1.603,1.53h0.063
			c-0.042-0.875-0.063-1.731-0.063-2.571v-4.07h1.02v16.195h-0.676l-0.261-1.728h-0.083c-0.86,1.291-2.096,1.936-3.705,1.936
			c-1.562,0-2.755-0.485-3.581-1.457c-0.825-0.971-1.238-2.387-1.238-4.247c0-1.957,0.409-3.452,1.229-4.486
			C185.511,73.738,186.702,73.221,188.262,73.221z M188.262,74.157c-1.234,0-2.163,0.434-2.784,1.301s-0.932,2.127-0.932,3.778
			c0,3.206,1.246,4.809,3.737,4.809c1.276,0,2.213-0.372,2.81-1.114c0.597-0.743,0.896-1.967,0.896-3.674v-0.177
			c0-1.749-0.293-3.006-0.88-3.773C190.523,74.541,189.574,74.157,188.262,74.157z"/>
		<path fill="#FFFFFF" d="M201.803,84.961c-1.645,0-2.927-0.506-3.846-1.52c-0.92-1.013-1.379-2.432-1.379-4.257
			c0-1.804,0.443-3.249,1.332-4.335c0.888-1.086,2.085-1.629,3.591-1.629c1.332,0,2.383,0.465,3.153,1.395
			c0.771,0.93,1.155,2.193,1.155,3.789v0.833h-8.149c0.014,1.554,0.376,2.741,1.088,3.56c0.711,0.819,1.729,1.228,3.055,1.228
			c0.646,0,1.212-0.045,1.701-0.135s1.108-0.285,1.858-0.583v0.937c-0.639,0.277-1.229,0.466-1.77,0.567
			S202.456,84.961,201.803,84.961z M201.501,74.137c-1.09,0-1.964,0.359-2.623,1.077s-1.045,1.754-1.155,3.107h6.994
			c0-1.312-0.284-2.337-0.854-3.076C203.294,74.506,202.507,74.137,201.501,74.137z"/>
		<path fill="#FFFFFF" d="M218.716,79.081c0,1.846-0.448,3.287-1.343,4.325c-0.896,1.037-2.131,1.556-3.706,1.556
			c-0.992,0-1.866-0.239-2.622-0.718c-0.757-0.479-1.336-1.166-1.738-2.061s-0.604-1.929-0.604-3.102
			c0-1.846,0.447-3.284,1.342-4.314c0.896-1.03,2.124-1.545,3.685-1.545c1.555,0,2.774,0.522,3.659,1.566
			S218.716,77.263,218.716,79.081z M209.786,79.081c0,1.554,0.342,2.767,1.025,3.638s1.649,1.306,2.898,1.306
			s2.215-0.436,2.898-1.306s1.025-2.083,1.025-3.638c0-1.562-0.345-2.772-1.035-3.632s-1.66-1.291-2.909-1.291
			s-2.212,0.429-2.889,1.286S209.786,77.512,209.786,79.081z"/>
		<path fill="#FFFFFF" d="M225.262,84.045c0.652,0,1.221-0.056,1.707-0.167v0.833c-0.5,0.167-1.076,0.25-1.728,0.25
			c-1,0-1.737-0.267-2.212-0.801c-0.476-0.534-0.713-1.374-0.713-2.519v-7.307h-1.676V73.73l1.676-0.468l0.521-2.561h0.53v2.738
			h3.32v0.895h-3.32v7.161c0,0.868,0.152,1.509,0.458,1.926C224.131,83.837,224.61,84.045,225.262,84.045z"/>
		<path fill="#FFFFFF" d="M237.73,84.753v-7.338c0-1.138-0.239-1.965-0.718-2.482c-0.479-0.517-1.222-0.775-2.227-0.775
			c-1.354,0-2.344,0.342-2.972,1.025s-0.942,1.792-0.942,3.325v6.245h-1.03V68.558h1.03v5.152l-0.052,1.447h0.072
			c0.424-0.68,0.958-1.173,1.604-1.478s1.446-0.458,2.403-0.458c2.567,0,3.852,1.377,3.852,4.132v7.4H237.73z"/>
		<path fill="#FFFFFF" d="M247.41,84.961c-1.645,0-2.927-0.506-3.847-1.52c-0.919-1.013-1.379-2.432-1.379-4.257
			c0-1.804,0.444-3.249,1.333-4.335c0.888-1.086,2.085-1.629,3.591-1.629c1.332,0,2.383,0.465,3.153,1.395
			c0.771,0.93,1.155,2.193,1.155,3.789v0.833h-8.149c0.014,1.554,0.376,2.741,1.087,3.56c0.712,0.819,1.729,1.228,3.056,1.228
			c0.645,0,1.212-0.045,1.701-0.135s1.108-0.285,1.858-0.583v0.937c-0.639,0.277-1.229,0.466-1.77,0.567
			S248.061,84.961,247.41,84.961z M247.108,74.137c-1.09,0-1.964,0.359-2.623,1.077s-1.045,1.754-1.155,3.107h6.994
			c0-1.312-0.285-2.337-0.854-3.076C248.901,74.506,248.114,74.137,247.108,74.137z"/>
		<path fill="#FFFFFF" d="M255.976,79.788l5.776-6.349h1.249l-4.455,4.829l4.84,6.484h-1.238l-4.299-5.714l-1.853,1.686v4.028h-1.03
			V68.558h1.03v8.119l-0.073,3.112H255.976z"/>
	</g>
	<circle fill="#95C123" cx="264.674" cy="22.186" r="7.4"/>
	
		<rect x="35.626" y="14.72" transform="matrix(0.526 -0.8505 0.8505 0.526 10.4858 51.5111)" fill="#FFFFFF" width="31.659" height="3.258"/>
	
		<rect x="11.362" y="14.72" transform="matrix(-0.526 -0.8505 0.8505 -0.526 27.5916 48.0741)" fill="#FFFFFF" width="31.66" height="3.257"/>
	<circle fill="#BED130" cx="276.761" cy="10.098" r="4.688"/>
	<g>
		<path fill="#95C123" d="M57.435,22.186H21.316C9.543,22.186,0,31.729,0,43.501v19.936C0,75.21,9.543,84.753,21.316,84.753h36.119
			c11.772,0,21.315-9.543,21.315-21.316V43.501C78.75,31.729,69.208,22.186,57.435,22.186z M66.145,63.088
			c0,6.181-5.01,11.191-11.189,11.191H23.796c-6.18,0-11.189-5.01-11.189-11.191V43.851c0-6.18,5.009-11.19,11.189-11.19h31.159
			c6.18,0,11.189,5.01,11.189,11.19V63.088z"/>
	</g>
	<g>
		<path fill="#BED130" d="M57.436,80.711h-36.12C9.544,80.711,0,71.169,0,59.396v4.042C0,75.21,9.544,84.753,21.316,84.753h36.12
			c11.771,0,21.315-9.543,21.315-21.316v-4.042C78.751,71.169,69.208,80.711,57.436,80.711z"/>
	</g>
</g>
</svg>
